<mxfile host="drawio-plugin" agent="Mozilla/5.0 (Windows NT 10.0; Win64; x64) AppleWebKit/537.36 (KHTML, like Gecko) Chrome/122.0.0.0 Safari/537.36" modified="2025-01-15T23:32:33.620Z" version="22.1.22" etag="NKxRbkcrV7aHD5jR-qBc" type="embed">
  <diagram name="Page-1" id="BS05QQEQ3LIuvcSA-pld">
    <mxGraphModel dx="2769" dy="1629" grid="0" gridSize="10" guides="1" tooltips="1" connect="1" arrows="1" fold="1" page="0" pageScale="1" pageWidth="850" pageHeight="1100" math="0" shadow="0">
      <root>
        <mxCell id="0" />
        <mxCell id="1" parent="0" />
        <mxCell id="50" value="&lt;font color=&quot;#000000&quot;&gt;&lt;b&gt;module&lt;/b&gt;&lt;/font&gt;" style="ellipse;whiteSpace=wrap;html=1;fillColor=none;verticalAlign=top;strokeWidth=6;fontFamily=Architects Daughter;fontSource=https%3A%2F%2Ffonts.googleapis.com%2Fcss%3Ffamily%3DArchitects%2BDaughter;fontSize=50;fontColor=#4D4D4D;strokeColor=#4D4D4D;" vertex="1" parent="1">
          <mxGeometry x="-218" y="-25" width="1333" height="1046" as="geometry" />
        </mxCell>
        <mxCell id="51" value="" style="ellipse;whiteSpace=wrap;html=1;fillColor=#dae8fc;verticalAlign=top;strokeColor=#6c8ebf;strokeWidth=1;fontFamily=Architects Daughter;fontSource=https%3A%2F%2Ffonts.googleapis.com%2Fcss%3Ffamily%3DArchitects%2BDaughter;fillStyle=solid;" vertex="1" parent="1">
          <mxGeometry x="5" y="151" width="910" height="706" as="geometry" />
        </mxCell>
        <mxCell id="52" value="&lt;b&gt;_model&lt;/b&gt;" style="ellipse;whiteSpace=wrap;html=1;verticalAlign=top;fillColor=#FFCCFF;strokeColor=#000000;opacity=30;fontSize=20;fontFamily=Architects Daughter;fontSource=https%3A%2F%2Ffonts.googleapis.com%2Fcss%3Ffamily%3DArchitects%2BDaughter;" vertex="1" parent="1">
          <mxGeometry x="284" y="357" width="348" height="295" as="geometry" />
        </mxCell>
        <mxCell id="53" value="" style="endArrow=none;html=1;rounded=0;exitX=0.74;exitY=0.067;exitDx=0;exitDy=0;exitPerimeter=0;entryX=0.691;entryY=0.036;entryDx=0;entryDy=0;entryPerimeter=0;strokeWidth=1;fontFamily=Architects Daughter;fontSource=https%3A%2F%2Ffonts.googleapis.com%2Fcss%3Ffamily%3DArchitects%2BDaughter;" edge="1" parent="1" source="52" target="50">
          <mxGeometry width="50" height="50" relative="1" as="geometry">
            <mxPoint x="826" y="469" as="sourcePoint" />
            <mxPoint x="876" y="419" as="targetPoint" />
          </mxGeometry>
        </mxCell>
        <mxCell id="54" value="" style="endArrow=none;html=1;rounded=0;exitX=0.5;exitY=1;exitDx=0;exitDy=0;entryX=0.5;entryY=1;entryDx=0;entryDy=0;strokeWidth=1;fontFamily=Architects Daughter;fontSource=https%3A%2F%2Ffonts.googleapis.com%2Fcss%3Ffamily%3DArchitects%2BDaughter;" edge="1" parent="1" source="52" target="50">
          <mxGeometry width="50" height="50" relative="1" as="geometry">
            <mxPoint x="826" y="469" as="sourcePoint" />
            <mxPoint x="876" y="419" as="targetPoint" />
          </mxGeometry>
        </mxCell>
        <mxCell id="55" value="" style="endArrow=none;html=1;rounded=0;exitX=0.191;exitY=0.118;exitDx=0;exitDy=0;entryX=0.199;entryY=0.109;entryDx=0;entryDy=0;strokeWidth=1;fontFamily=Architects Daughter;fontSource=https%3A%2F%2Ffonts.googleapis.com%2Fcss%3Ffamily%3DArchitects%2BDaughter;entryPerimeter=0;exitPerimeter=0;" edge="1" parent="1" source="52" target="50">
          <mxGeometry width="50" height="50" relative="1" as="geometry">
            <mxPoint x="826" y="469" as="sourcePoint" />
            <mxPoint x="876" y="419" as="targetPoint" />
          </mxGeometry>
        </mxCell>
        <mxCell id="56" value="_repository" style="text;html=1;align=center;verticalAlign=middle;whiteSpace=wrap;rounded=0;fontSize=20;fontStyle=1;fontFamily=Architects Daughter;fontSource=https%3A%2F%2Ffonts.googleapis.com%2Fcss%3Ffamily%3DArchitects%2BDaughter;" vertex="1" parent="1">
          <mxGeometry x="717" y="590" width="60" height="30" as="geometry" />
        </mxCell>
        <mxCell id="57" value="_adapter" style="text;html=1;align=center;verticalAlign=middle;whiteSpace=wrap;rounded=0;fontSize=20;fontStyle=1;fontFamily=Architects Daughter;fontSource=https%3A%2F%2Ffonts.googleapis.com%2Fcss%3Ffamily%3DArchitects%2BDaughter;" vertex="1" parent="1">
          <mxGeometry x="364" y="188" width="60" height="30" as="geometry" />
        </mxCell>
        <mxCell id="58" value="&lt;b style=&quot;background-color: transparent;&quot;&gt;&lt;font&gt;Private&lt;/font&gt;&lt;/b&gt;" style="rounded=0;whiteSpace=wrap;html=1;strokeColor=none;fillColor=none;fontColor=#66B2FF;fontSize=50;fontFamily=Architects Daughter;fontSource=https%3A%2F%2Ffonts.googleapis.com%2Fcss%3Ffamily%3DArchitects%2BDaughter;" vertex="1" parent="1">
          <mxGeometry x="695" y="494.87" width="213" height="75.13" as="geometry" />
        </mxCell>
        <mxCell id="59" value="&lt;b style=&quot;background-color: transparent;&quot;&gt;&lt;font&gt;Public&lt;/font&gt;&lt;/b&gt;" style="rounded=0;whiteSpace=wrap;html=1;strokeColor=none;fillColor=none;fontColor=#666666;fontSize=50;fontFamily=Architects Daughter;fontSource=https%3A%2F%2Ffonts.googleapis.com%2Fcss%3Ffamily%3DArchitects%2BDaughter;" vertex="1" parent="1">
          <mxGeometry x="-155" y="594" width="164" height="86" as="geometry" />
        </mxCell>
        <mxCell id="60" value="" style="endArrow=none;html=1;rounded=0;entryX=1;entryY=0.467;entryDx=0;entryDy=0;entryPerimeter=0;strokeWidth=1;fontFamily=Architects Daughter;fontSource=https%3A%2F%2Ffonts.googleapis.com%2Fcss%3Ffamily%3DArchitects%2BDaughter;exitX=0.995;exitY=0.418;exitDx=0;exitDy=0;exitPerimeter=0;" edge="1" parent="1" source="52" target="50">
          <mxGeometry width="50" height="50" relative="1" as="geometry">
            <mxPoint x="552" y="387" as="sourcePoint" />
            <mxPoint x="963" y="217" as="targetPoint" />
          </mxGeometry>
        </mxCell>
        <mxCell id="61" value="_events" style="text;html=1;align=center;verticalAlign=middle;whiteSpace=wrap;rounded=0;fontSize=20;fontStyle=1;fontFamily=Architects Daughter;fontSource=https%3A%2F%2Ffonts.googleapis.com%2Fcss%3Ffamily%3DArchitects%2BDaughter;" vertex="1" parent="1">
          <mxGeometry x="709" y="287.5" width="60" height="30" as="geometry" />
        </mxCell>
        <mxCell id="62" value="&lt;font style=&quot;font-size: 50px;&quot;&gt;&lt;b style=&quot;&quot;&gt;module&lt;/b&gt;&lt;/font&gt;" style="ellipse;whiteSpace=wrap;html=1;fillColor=none;verticalAlign=top;fontFamily=Architects Daughter;fontSource=https%3A%2F%2Ffonts.googleapis.com%2Fcss%3Ffamily%3DArchitects%2BDaughter;strokeWidth=6;strokeColor=#4D4D4D;" vertex="1" parent="1">
          <mxGeometry x="-597" y="99.5" width="379" height="406" as="geometry" />
        </mxCell>
        <mxCell id="63" value="" style="endArrow=classic;html=1;rounded=0;exitX=0.959;exitY=0.106;exitDx=0;exitDy=0;entryX=0;entryY=0;entryDx=0;entryDy=0;fontStyle=1;strokeWidth=3;curved=1;strokeColor=#33FF99;fontFamily=Architects Daughter;fontSource=https%3A%2F%2Ffonts.googleapis.com%2Fcss%3Ffamily%3DArchitects%2BDaughter;exitPerimeter=0;" edge="1" parent="1" source="75" target="67">
          <mxGeometry width="50" height="50" relative="1" as="geometry">
            <mxPoint x="-343.8040000000001" y="190.12799999999993" as="sourcePoint" />
            <mxPoint x="335" y="248" as="targetPoint" />
            <Array as="points">
              <mxPoint x="-122" y="102" />
              <mxPoint x="186" y="144" />
            </Array>
          </mxGeometry>
        </mxCell>
        <mxCell id="64" value="" style="endArrow=classic;html=1;rounded=0;exitX=0.156;exitY=1.075;exitDx=0;exitDy=0;fontStyle=1;strokeWidth=3;strokeColor=#33FF99;curved=1;fontFamily=Architects Daughter;fontSource=https%3A%2F%2Ffonts.googleapis.com%2Fcss%3Ffamily%3DArchitects%2BDaughter;entryX=1;entryY=0.25;entryDx=0;entryDy=0;exitPerimeter=0;" edge="1" parent="1" source="67" target="71">
          <mxGeometry width="50" height="50" relative="1" as="geometry">
            <mxPoint x="335" y="276" as="sourcePoint" />
            <mxPoint x="186.5" y="331" as="targetPoint" />
            <Array as="points">
              <mxPoint x="335" y="341" />
            </Array>
          </mxGeometry>
        </mxCell>
        <mxCell id="65" value="UseCaseApi" style="rounded=1;whiteSpace=wrap;html=1;fontFamily=Architects Daughter;fontSource=https%3A%2F%2Ffonts.googleapis.com%2Fcss%3Ffamily%3DArchitects%2BDaughter;arcSize=34;fillStyle=solid;fillColor=#E6E6E6;fontSize=31;fontStyle=0" vertex="1" parent="1">
          <mxGeometry x="-182" y="359" width="187" height="59" as="geometry" />
        </mxCell>
        <mxCell id="66" value="JpaRepository" style="rounded=1;whiteSpace=wrap;html=1;fontFamily=Architects Daughter;fontSource=https%3A%2F%2Ffonts.googleapis.com%2Fcss%3Ffamily%3DArchitects%2BDaughter;arcSize=34;fillStyle=solid;fillColor=#CCE5FF;fontSize=31;fontStyle=0" vertex="1" parent="1">
          <mxGeometry x="540" y="675" width="234" height="51" as="geometry" />
        </mxCell>
        <mxCell id="67" value="Adapter" style="rounded=1;whiteSpace=wrap;html=1;fontFamily=Architects Daughter;fontSource=https%3A%2F%2Ffonts.googleapis.com%2Fcss%3Ffamily%3DArchitects%2BDaughter;arcSize=34;fillStyle=solid;fillColor=#CCE5FF;fontSize=31;fontStyle=0" vertex="1" parent="1">
          <mxGeometry x="325" y="238" width="160" height="49" as="geometry" />
        </mxCell>
        <mxCell id="68" value="Query" style="rounded=1;whiteSpace=wrap;html=1;fontFamily=Architects Daughter;fontSource=https%3A%2F%2Ffonts.googleapis.com%2Fcss%3Ffamily%3DArchitects%2BDaughter;arcSize=34;fillStyle=solid;fillColor=#CCE5FF;fontSize=31;fontStyle=0" vertex="1" parent="1">
          <mxGeometry x="224" y="715" width="160" height="42" as="geometry" />
        </mxCell>
        <mxCell id="69" value="QueryApi" style="rounded=1;whiteSpace=wrap;html=1;fontFamily=Architects Daughter;fontSource=https%3A%2F%2Ffonts.googleapis.com%2Fcss%3Ffamily%3DArchitects%2BDaughter;arcSize=34;fillStyle=solid;fillColor=#E6E6E6;fontSize=31;fontStyle=0" vertex="1" parent="1">
          <mxGeometry x="-10" y="799" width="187" height="49" as="geometry" />
        </mxCell>
        <mxCell id="70" value="&amp;lt;&amp;lt; slice &amp;gt;&amp;gt;" style="text;html=1;align=center;verticalAlign=middle;whiteSpace=wrap;rounded=0;fontSize=20;fontStyle=1;fontFamily=Architects Daughter;fontSource=https%3A%2F%2Ffonts.googleapis.com%2Fcss%3Ffamily%3DArchitects%2BDaughter;" vertex="1" parent="1">
          <mxGeometry x="141" y="587" width="102" height="30" as="geometry" />
        </mxCell>
        <mxCell id="71" value="UseCase" style="rounded=1;whiteSpace=wrap;html=1;fontFamily=Architects Daughter;fontSource=https%3A%2F%2Ffonts.googleapis.com%2Fcss%3Ffamily%3DArchitects%2BDaughter;arcSize=34;fillStyle=solid;fillColor=#CCE5FF;fontSize=31;fontStyle=0" vertex="1" parent="1">
          <mxGeometry x="74" y="374" width="184" height="44" as="geometry" />
        </mxCell>
        <mxCell id="72" value="Event" style="rounded=1;whiteSpace=wrap;html=1;fontFamily=Architects Daughter;fontSource=https%3A%2F%2Ffonts.googleapis.com%2Fcss%3Ffamily%3DArchitects%2BDaughter;arcSize=34;fillStyle=solid;fillColor=#CCE5FF;fontSize=31;fontStyle=0" vertex="1" parent="1">
          <mxGeometry x="627" y="334.5" width="160" height="49" as="geometry" />
        </mxCell>
        <mxCell id="73" value="Event" style="rounded=1;whiteSpace=wrap;html=1;fontFamily=Architects Daughter;fontSource=https%3A%2F%2Ffonts.googleapis.com%2Fcss%3Ffamily%3DArchitects%2BDaughter;arcSize=34;fillStyle=solid;fillColor=#CCE5FF;fontSize=31;fontStyle=0" vertex="1" parent="1">
          <mxGeometry x="808" y="194" width="143" height="49" as="geometry" />
        </mxCell>
        <mxCell id="74" value="@PublicEvent" style="text;html=1;align=center;verticalAlign=middle;resizable=0;points=[];autosize=1;strokeColor=none;fillColor=none;fontSize=20;fontFamily=Architects Daughter;fontSource=https%3A%2F%2Ffonts.googleapis.com%2Fcss%3Ffamily%3DArchitects%2BDaughter;fontColor=#FF0080;" vertex="1" parent="1">
          <mxGeometry x="790" y="163" width="143" height="36" as="geometry" />
        </mxCell>
        <mxCell id="75" value="UseCaseApi" style="rounded=1;whiteSpace=wrap;html=1;fontFamily=Architects Daughter;fontSource=https%3A%2F%2Ffonts.googleapis.com%2Fcss%3Ffamily%3DArchitects%2BDaughter;arcSize=34;fillStyle=solid;fillColor=#E6E6E6;fontSize=31;fontStyle=0" vertex="1" parent="1">
          <mxGeometry x="-452" y="193" width="187" height="60" as="geometry" />
        </mxCell>
        <mxCell id="76" value="Event" style="rounded=1;whiteSpace=wrap;html=1;fontFamily=Architects Daughter;fontSource=https%3A%2F%2Ffonts.googleapis.com%2Fcss%3Ffamily%3DArchitects%2BDaughter;arcSize=34;fillStyle=solid;fillColor=#CCE5FF;fontSize=31;fontStyle=0" vertex="1" parent="1">
          <mxGeometry x="-505" y="381" width="160" height="49" as="geometry" />
        </mxCell>
        <mxCell id="77" value="@PublicEvent" style="text;html=1;align=center;verticalAlign=middle;resizable=0;points=[];autosize=1;strokeColor=none;fillColor=none;fontSize=20;fontFamily=Architects Daughter;fontSource=https%3A%2F%2Ffonts.googleapis.com%2Fcss%3Ffamily%3DArchitects%2BDaughter;fontColor=#FF0080;" vertex="1" parent="1">
          <mxGeometry x="-522" y="349" width="143" height="36" as="geometry" />
        </mxCell>
        <mxCell id="78" value="UseCase" style="rounded=1;whiteSpace=wrap;html=1;fontFamily=Architects Daughter;fontSource=https%3A%2F%2Ffonts.googleapis.com%2Fcss%3Ffamily%3DArchitects%2BDaughter;arcSize=34;fillStyle=solid;fillColor=#CCE5FF;fontSize=31;fontStyle=0" vertex="1" parent="1">
          <mxGeometry x="61" y="507" width="184" height="44" as="geometry" />
        </mxCell>
        <mxCell id="79" value="" style="endArrow=classic;html=1;rounded=0;entryX=0;entryY=0.5;entryDx=0;entryDy=0;fontStyle=1;strokeWidth=3;curved=1;strokeColor=#33FF99;fontFamily=Architects Daughter;fontSource=https%3A%2F%2Ffonts.googleapis.com%2Fcss%3Ffamily%3DArchitects%2BDaughter;exitX=0.902;exitY=1;exitDx=0;exitDy=0;exitPerimeter=0;" edge="1" parent="1" source="76" target="78">
          <mxGeometry width="50" height="50" relative="1" as="geometry">
            <mxPoint x="-333.8040000000001" y="200.12799999999993" as="sourcePoint" />
            <mxPoint x="345" y="258" as="targetPoint" />
            <Array as="points">
              <mxPoint x="-271" y="465" />
              <mxPoint x="-116" y="514" />
            </Array>
          </mxGeometry>
        </mxCell>
        <mxCell id="80" value="@ApplicationModuleListener" style="text;html=1;align=center;verticalAlign=middle;resizable=0;points=[];autosize=1;strokeColor=none;fillColor=none;fontSize=20;fontFamily=Architects Daughter;fontSource=https%3A%2F%2Ffonts.googleapis.com%2Fcss%3Ffamily%3DArchitects%2BDaughter;fontColor=#FF0080;" vertex="1" parent="1">
          <mxGeometry x="9" y="475" width="275" height="36" as="geometry" />
        </mxCell>
        <mxCell id="81" value="@RestController" style="text;html=1;align=center;verticalAlign=middle;resizable=0;points=[];autosize=1;strokeColor=none;fillColor=none;fontSize=20;fontFamily=Architects Daughter;fontSource=https%3A%2F%2Ffonts.googleapis.com%2Fcss%3Ffamily%3DArchitects%2BDaughter;fontColor=#FF0080;" vertex="1" parent="1">
          <mxGeometry x="58.5" y="341" width="176" height="36" as="geometry" />
        </mxCell>
        <mxCell id="82" value="@RestController" style="text;html=1;align=center;verticalAlign=middle;resizable=0;points=[];autosize=1;strokeColor=none;fillColor=none;fontSize=20;fontFamily=Architects Daughter;fontSource=https%3A%2F%2Ffonts.googleapis.com%2Fcss%3Ffamily%3DArchitects%2BDaughter;fontColor=#FF0080;" vertex="1" parent="1">
          <mxGeometry x="202" y="684" width="176" height="36" as="geometry" />
        </mxCell>
        <mxCell id="83" value="" style="edgeStyle=none;orthogonalLoop=1;jettySize=auto;html=1;rounded=0;fontFamily=Architects Daughter;fontSource=https%3A%2F%2Ffonts.googleapis.com%2Fcss%3Ffamily%3DArchitects%2BDaughter;fontSize=16;startSize=14;endArrow=block;endSize=14;sourcePerimeterSpacing=8;targetPerimeterSpacing=8;curved=1;exitX=0;exitY=0.5;exitDx=0;exitDy=0;entryX=1;entryY=0.5;entryDx=0;entryDy=0;dashed=1;endFill=0;" edge="1" parent="1" source="71" target="65">
          <mxGeometry width="140" relative="1" as="geometry">
            <mxPoint x="553" y="455" as="sourcePoint" />
            <mxPoint x="693" y="455" as="targetPoint" />
            <Array as="points" />
          </mxGeometry>
        </mxCell>
        <mxCell id="84" value="" style="edgeStyle=none;orthogonalLoop=1;jettySize=auto;html=1;rounded=0;fontFamily=Architects Daughter;fontSource=https%3A%2F%2Ffonts.googleapis.com%2Fcss%3Ffamily%3DArchitects%2BDaughter;fontSize=16;startSize=14;endArrow=block;endSize=14;sourcePerimeterSpacing=8;targetPerimeterSpacing=8;curved=1;exitX=0.129;exitY=0.976;exitDx=0;exitDy=0;entryX=1;entryY=0.25;entryDx=0;entryDy=0;dashed=1;endFill=0;exitPerimeter=0;" edge="1" parent="1" source="68" target="69">
          <mxGeometry width="140" relative="1" as="geometry">
            <mxPoint x="84" y="406" as="sourcePoint" />
            <mxPoint x="15" y="394" as="targetPoint" />
            <Array as="points" />
          </mxGeometry>
        </mxCell>
        <mxCell id="85" value="Entity" style="rounded=1;whiteSpace=wrap;html=1;fontFamily=Architects Daughter;fontSource=https%3A%2F%2Ffonts.googleapis.com%2Fcss%3Ffamily%3DArchitects%2BDaughter;arcSize=34;fillStyle=solid;fillColor=#FFCCE6;fontSize=31;fontStyle=0" vertex="1" parent="1">
          <mxGeometry x="337.5" y="455" width="184" height="44" as="geometry" />
        </mxCell>
        <mxCell id="86" value="Value" style="rounded=1;whiteSpace=wrap;html=1;fontFamily=Architects Daughter;fontSource=https%3A%2F%2Ffonts.googleapis.com%2Fcss%3Ffamily%3DArchitects%2BDaughter;arcSize=34;fillStyle=solid;fillColor=#FFCCE6;fontSize=31;fontStyle=0" vertex="1" parent="1">
          <mxGeometry x="438" y="538" width="127" height="44" as="geometry" />
        </mxCell>
        <mxCell id="87" value="&lt;b style=&quot;background-color: transparent;&quot;&gt;&lt;font&gt;Public&lt;/font&gt;&lt;/b&gt;" style="rounded=0;whiteSpace=wrap;html=1;strokeColor=none;fillColor=none;fontColor=#666666;fontSize=50;fontFamily=Architects Daughter;fontSource=https%3A%2F%2Ffonts.googleapis.com%2Fcss%3Ffamily%3DArchitects%2BDaughter;" vertex="1" parent="1">
          <mxGeometry x="-532" y="297" width="120" height="22" as="geometry" />
        </mxCell>
        <mxCell id="88" value="execute / mutate" style="text;html=1;align=center;verticalAlign=middle;resizable=0;points=[];autosize=1;strokeColor=none;fillColor=none;fontSize=14;fontFamily=Architects Daughter;fontSource=https%3A%2F%2Ffonts.googleapis.com%2Fcss%3Ffamily%3DArchitects%2BDaughter;fontColor=#6600CC;fontStyle=2" vertex="1" parent="1">
          <mxGeometry x="101" y="412" width="131" height="29" as="geometry" />
        </mxCell>
        <mxCell id="89" value="read / readonly" style="text;html=1;align=center;verticalAlign=middle;resizable=0;points=[];autosize=1;strokeColor=none;fillColor=none;fontSize=14;fontFamily=Architects Daughter;fontSource=https%3A%2F%2Ffonts.googleapis.com%2Fcss%3Ffamily%3DArchitects%2BDaughter;fontColor=#6600CC;fontStyle=2" vertex="1" parent="1">
          <mxGeometry x="254" y="752" width="120" height="29" as="geometry" />
        </mxCell>
        <mxCell id="90" value="entity CRUD / lookup" style="text;html=1;align=center;verticalAlign=middle;resizable=0;points=[];autosize=1;strokeColor=none;fillColor=none;fontSize=14;fontFamily=Architects Daughter;fontSource=https%3A%2F%2Ffonts.googleapis.com%2Fcss%3Ffamily%3DArchitects%2BDaughter;fontColor=#6600CC;fontStyle=2" vertex="1" parent="1">
          <mxGeometry x="585" y="723" width="155" height="29" as="geometry" />
        </mxCell>
        <mxCell id="91" value="protect from outside" style="text;html=1;align=center;verticalAlign=middle;resizable=0;points=[];autosize=1;strokeColor=none;fillColor=none;fontSize=14;fontFamily=Architects Daughter;fontSource=https%3A%2F%2Ffonts.googleapis.com%2Fcss%3Ffamily%3DArchitects%2BDaughter;fontColor=#6600CC;fontStyle=2" vertex="1" parent="1">
          <mxGeometry x="349.5" y="282" width="160" height="29" as="geometry" />
        </mxCell>
        <mxCell id="92" value="@Repository" style="text;html=1;align=center;verticalAlign=middle;resizable=0;points=[];autosize=1;strokeColor=none;fillColor=none;fontSize=20;fontFamily=Architects Daughter;fontSource=https%3A%2F%2Ffonts.googleapis.com%2Fcss%3Ffamily%3DArchitects%2BDaughter;fontColor=#FF0080;" vertex="1" parent="1">
          <mxGeometry x="571" y="644" width="141" height="36" as="geometry" />
        </mxCell>
        <mxCell id="93" value="external model repository?" style="text;html=1;align=center;verticalAlign=middle;resizable=0;points=[];autosize=1;strokeColor=none;fillColor=none;fontSize=14;fontFamily=Architects Daughter;fontSource=https%3A%2F%2Ffonts.googleapis.com%2Fcss%3Ffamily%3DArchitects%2BDaughter;fontColor=#6600CC;fontStyle=2" vertex="1" parent="1">
          <mxGeometry x="337" y="302" width="193" height="29" as="geometry" />
        </mxCell>
      </root>
    </mxGraphModel>
  </diagram>
</mxfile>
